<svg xmlns="http://www.w3.org/2000/svg" viewBox="0 0 240 240"><defs></defs><ellipse cx="120" cy="214" rx="86" ry="10" fill="#000" opacity=".10"/><g transform="translate(0 0) scale(1)"><path d="M40 150 h160 a14 14 0 0 1 0 28 a10 10 0 0 1 -6 20 H46 a10 10 0 0 1 -6 -20 a14 14 0 0 1 0 -28z" fill="#E9A23B"/><path d="M44 178 h152 c0 14 -10 26 -24 26 H68 c-14 0 -24 -12 -24 -26z" fill="#D98A2B"/><rect x="38" y="128" width="164" height="24" rx="12" fill="#6B3A22"/><path d="M40 128 h160 l-14 14 -12 -8 -14 14 -14 -12 -16 14 -14 -12 -16 14 -14 -14 -12 10 -14 -14z" fill="#FFC93C"/><rect x="38" y="106" width="164" height="24" rx="12" fill="#6B3A22"/><path d="M40 106 h160 l-14 14 -12 -8 -14 14 -14 -12 -16 14 -14 -12 -16 14 -14 -14 -12 10 -14 -14z" fill="#FFC93C"/><path d="M36 104 q14 -12 28 0 t28 0 t28 0 t28 0 t28 0 t28 0 v8 H36z" fill="#5BBF4A"/><rect x="50" y="94" width="40" height="10" rx="5" fill="#E2453C"/><rect x="100" y="94" width="40" height="10" rx="5" fill="#E2453C"/><rect x="150" y="94" width="40" height="10" rx="5" fill="#E2453C"/><path d="M34 92 C34 20 206 20 206 92 z" fill="#F0A83C"/><path d="M50 82 C60 36 120 30 150 40" stroke="#F8C873" stroke-width="10" fill="none" stroke-linecap="round" opacity=".7"/><ellipse cx="80" cy="58" rx="5" ry="3" fill="#FFF3D6" transform="rotate(-20 80 58)"/><ellipse cx="110" cy="46" rx="5" ry="3" fill="#FFF3D6" transform="rotate(-20 110 46)"/><ellipse cx="140" cy="56" rx="5" ry="3" fill="#FFF3D6" transform="rotate(-20 140 56)"/><ellipse cx="165" cy="70" rx="5" ry="3" fill="#FFF3D6" transform="rotate(-20 165 70)"/><ellipse cx="98" cy="70" rx="5" ry="3" fill="#FFF3D6" transform="rotate(-20 98 70)"/></g></svg>