<svg xmlns="http://www.w3.org/2000/svg" viewBox="0 0 240 240"><defs></defs><ellipse cx="120" cy="214" rx="86" ry="10" fill="#000" opacity=".10"/><ellipse cx="120" cy="160" rx="100" ry="40" fill="#fff" stroke="#E5E7EB" stroke-width="4"/><path d="M50 160 c0 -44 70 -60 92 -40 c20 18 0 46 -30 50 c-30 4 -62 4 -62 -10z" fill="#FAFAF5"/><ellipse cx="80" cy="136" rx="4" ry="2.4" fill="#EEE9DA" transform="rotate(0 80 136)"/><ellipse cx="87" cy="141" rx="4" ry="2.4" fill="#EEE9DA" transform="rotate(23 87 141)"/><ellipse cx="94" cy="146" rx="4" ry="2.4" fill="#EEE9DA" transform="rotate(46 94 146)"/><ellipse cx="101" cy="151" rx="4" ry="2.4" fill="#EEE9DA" transform="rotate(69 101 151)"/><ellipse cx="108" cy="156" rx="4" ry="2.4" fill="#EEE9DA" transform="rotate(92 108 156)"/><ellipse cx="115" cy="161" rx="4" ry="2.4" fill="#EEE9DA" transform="rotate(115 115 161)"/><ellipse cx="122" cy="138" rx="4" ry="2.4" fill="#EEE9DA" transform="rotate(138 122 138)"/><ellipse cx="129" cy="143" rx="4" ry="2.4" fill="#EEE9DA" transform="rotate(161 129 143)"/><ellipse cx="136" cy="148" rx="4" ry="2.4" fill="#EEE9DA" transform="rotate(184 136 148)"/><ellipse cx="83" cy="153" rx="4" ry="2.4" fill="#EEE9DA" transform="rotate(207 83 153)"/><ellipse cx="90" cy="158" rx="4" ry="2.4" fill="#EEE9DA" transform="rotate(230 90 158)"/><ellipse cx="97" cy="163" rx="4" ry="2.4" fill="#EEE9DA" transform="rotate(253 97 163)"/><ellipse cx="104" cy="140" rx="4" ry="2.4" fill="#EEE9DA" transform="rotate(276 104 140)"/><ellipse cx="111" cy="145" rx="4" ry="2.4" fill="#EEE9DA" transform="rotate(299 111 145)"/><ellipse cx="118" cy="150" rx="4" ry="2.4" fill="#EEE9DA" transform="rotate(322 118 150)"/><ellipse cx="125" cy="155" rx="4" ry="2.4" fill="#EEE9DA" transform="rotate(345 125 155)"/><path d="M120 120 c30 -20 80 -10 80 30 c0 26 -40 34 -70 26 c-24 -6 -30 -42 -10 -56z" fill="#7A4A2A"/><ellipse cx="140" cy="132" rx="10" ry="5" fill="#2E7D32" transform="rotate(20 140 132)"/><ellipse cx="170" cy="140" rx="10" ry="5" fill="#2E7D32" transform="rotate(-30 170 140)"/><ellipse cx="156" cy="160" rx="10" ry="5" fill="#2E7D32" transform="rotate(60 156 160)"/><ellipse cx="186" cy="154" rx="10" ry="5" fill="#2E7D32" transform="rotate(10 186 154)"/><circle cx="150" cy="146" r="4" fill="#E53935"/><circle cx="176" cy="130" r="4" fill="#E53935"/><ellipse cx="96" cy="108" rx="30" ry="22" fill="#fff"/><circle cx="96" cy="108" r="11" fill="#FFB300"/></svg>