<svg xmlns="http://www.w3.org/2000/svg" viewBox="0 0 240 240"><defs></defs><ellipse cx="120" cy="214" rx="86" ry="10" fill="#000" opacity=".10"/><path d="M30 120 h180 c0 56 -40 90 -90 90 s-90 -34 -90 -90z" fill="#2D3142"/><path d="M40 120 h160 c-2 6 -6 10 -12 12 H52 c-6 -2 -10 -6 -12 -12z" fill="#fff" opacity=".15"/><ellipse cx="120" cy="120" rx="90" ry="22" fill="#8D4A24"/><path d="M54 114 q6 10 0 18" stroke="#FFF3E0" stroke-width="4" fill="none"/><path d="M68 114 q6 10 0 18" stroke="#FFF3E0" stroke-width="4" fill="none"/><path d="M82 114 q6 10 0 18" stroke="#FFF3E0" stroke-width="4" fill="none"/><path d="M96 114 q6 10 0 18" stroke="#FFF3E0" stroke-width="4" fill="none"/><path d="M110 114 q6 10 0 18" stroke="#FFF3E0" stroke-width="4" fill="none"/><path d="M124 114 q6 10 0 18" stroke="#FFF3E0" stroke-width="4" fill="none"/><path d="M138 114 q6 10 0 18" stroke="#FFF3E0" stroke-width="4" fill="none"/><path d="M152 114 q6 10 0 18" stroke="#FFF3E0" stroke-width="4" fill="none"/><path d="M166 114 q6 10 0 18" stroke="#FFF3E0" stroke-width="4" fill="none"/><path d="M180 114 q6 10 0 18" stroke="#FFF3E0" stroke-width="4" fill="none"/><rect x="80" y="106" width="34" height="18" rx="6" fill="#5D2E10"/><rect x="128" y="110" width="34" height="18" rx="6" fill="#5D2E10"/><ellipse cx="170" cy="112" rx="14" ry="6" fill="#66BB6A"/></svg>