<svg xmlns="http://www.w3.org/2000/svg" viewBox="0 0 240 240"><defs></defs><ellipse cx="120" cy="214" rx="86" ry="10" fill="#000" opacity=".10"/><path d="M40 150 h160 l-12 50 H52z" fill="#FFC145"/><path d="M56 130 q-4 -20 20 -24 q26 -4 30 16 q4 22 -22 26 q-24 2 -28 -18z" fill="#E8A33D" stroke="#C47F22" stroke-width="3"/><path d="M106 124 q-4 -20 20 -24 q26 -4 30 16 q4 22 -22 26 q-24 2 -28 -18z" fill="#E8A33D" stroke="#C47F22" stroke-width="3"/><path d="M152 134 q-4 -20 20 -24 q26 -4 30 16 q4 22 -22 26 q-24 2 -28 -18z" fill="#E8A33D" stroke="#C47F22" stroke-width="3"/><path d="M80 150 q-4 -20 20 -24 q26 -4 30 16 q4 22 -22 26 q-24 2 -28 -18z" fill="#E8A33D" stroke="#C47F22" stroke-width="3"/><path d="M132 154 q-4 -20 20 -24 q26 -4 30 16 q4 22 -22 26 q-24 2 -28 -18z" fill="#E8A33D" stroke="#C47F22" stroke-width="3"/></svg>