<svg xmlns="http://www.w3.org/2000/svg" viewBox="0 0 240 240"><defs></defs><ellipse cx="120" cy="214" rx="86" ry="10" fill="#000" opacity=".10"/><g transform="translate(12.0 60) scale(0.7)"><path d="M40 150 h160 a14 14 0 0 1 0 28 a10 10 0 0 1 -6 20 H46 a10 10 0 0 1 -6 -20 a14 14 0 0 1 0 -28z" fill="#E9A23B"/><path d="M44 178 h152 c0 14 -10 26 -24 26 H68 c-14 0 -24 -12 -24 -26z" fill="#D98A2B"/><rect x="38" y="128" width="164" height="24" rx="12" fill="#6B3A22"/><path d="M40 128 h160 l-14 14 -12 -8 -14 14 -14 -12 -16 14 -14 -12 -16 14 -14 -14 -12 10 -14 -14z" fill="#FFC93C"/><path d="M36 126 q14 -12 28 0 t28 0 t28 0 t28 0 t28 0 t28 0 v8 H36z" fill="#5BBF4A"/><rect x="50" y="116" width="40" height="10" rx="5" fill="#E2453C"/><rect x="100" y="116" width="40" height="10" rx="5" fill="#E2453C"/><rect x="150" y="116" width="40" height="10" rx="5" fill="#E2453C"/><path d="M34 114 C34 42 206 42 206 114 z" fill="#F0A83C"/><path d="M50 104 C60 58 120 52 150 62" stroke="#F8C873" stroke-width="10" fill="none" stroke-linecap="round" opacity=".7"/><ellipse cx="80" cy="80" rx="5" ry="3" fill="#FFF3D6" transform="rotate(-20 80 80)"/><ellipse cx="110" cy="68" rx="5" ry="3" fill="#FFF3D6" transform="rotate(-20 110 68)"/><ellipse cx="140" cy="78" rx="5" ry="3" fill="#FFF3D6" transform="rotate(-20 140 78)"/><ellipse cx="165" cy="92" rx="5" ry="3" fill="#FFF3D6" transform="rotate(-20 165 92)"/><ellipse cx="98" cy="92" rx="5" ry="3" fill="#FFF3D6" transform="rotate(-20 98 92)"/></g><g transform="translate(95.6 77.9) scale(0.62)"><rect x="72" y="50" width="14" height="100" rx="3" fill="#FFD54F" transform="rotate(-10 79 130)"/><rect x="88" y="34" width="14" height="116" rx="3" fill="#FFCA28" transform="rotate(-4 95 130)"/><rect x="104" y="26" width="14" height="124" rx="3" fill="#FFE082" transform="rotate(2 111 130)"/><rect x="120" y="30" width="14" height="120" rx="3" fill="#FFD54F" transform="rotate(-2 127 130)"/><rect x="136" y="22" width="14" height="128" rx="3" fill="#FFCA28" transform="rotate(5 143 130)"/><rect x="152" y="38" width="14" height="112" rx="3" fill="#FFE082" transform="rotate(9 159 130)"/><rect x="166" y="52" width="14" height="98" rx="3" fill="#FFD54F" transform="rotate(14 173 130)"/><path d="M58 110 h124 l-14 98 a10 10 0 0 1 -10 8 H82 a10 10 0 0 1 -10 -8z" fill="#E4572E"/><path d="M58 110 q62 30 124 0" fill="#C9431D"/><text x="120" y="182" text-anchor="middle" font-family="Arial" font-weight="900" font-size="26" fill="#FFC145">KH</text></g><g transform="translate(-6.0 89.99999999999999) scale(0.55)"><path d="M64 60 h112 l-12 146 a10 10 0 0 1 -10 9 H86 a10 10 0 0 1 -10 -9z" fill="#C62828"/><rect x="56" y="48" width="128" height="16" rx="8" fill="#fff"/><rect x="126" y="6" width="10" height="50" rx="4" fill="#E4572E" transform="rotate(12 131 30)"/><circle cx="120" cy="140" r="26" fill="#fff" opacity=".9"/><text x="120" y="149" text-anchor="middle" font-family="Arial" font-weight="bold" font-size="22" fill="#C62828">KH</text><path d="M80 70 l8 120" stroke="#fff" stroke-width="6" opacity=".25" stroke-linecap="round"/></g></svg>